<?xml version="1.0" encoding="utf-8"?>
<!-- Generator: Adobe Illustrator 19.1.0, SVG Export Plug-In . SVG Version: 6.00 Build 0)  -->
<svg version="1.1" xmlns="http://www.w3.org/2000/svg" xmlns:xlink="http://www.w3.org/1999/xlink" x="0px" y="0px"
	 viewBox="0 0 612 792" style="enable-background:new 0 0 612 792;" xml:space="preserve">
<style type="text/css">
	.st0{display:none;}
	.st1{display:inline;}
	.st2{fill:none;stroke:#47B754;stroke-width:7.200000e-02;stroke-miterlimit:10;}
	.st3{fill:#48B753;}
	.st4{fill:#48B749;}
	.st5{fill:#47B754;}
	.st6{font-family:'IstokWeb-Regular';}
	.st7{font-size:98.3158px;}
	.st8{fill:#49B751;}
</style>
<g id="Layer_1" class="st0">
</g>
<g id="Layer_3" class="st0">
	<g class="st1">
		<line class="st2" x1="365" y1="99.4" x2="317.6" y2="99.4"/>
		<line class="st2" x1="317.6" y1="99.4" x2="309.5" y2="99.4"/>
	</g>
</g>
<g id="Layer_2">
</g>
<g id="Layer_4">
	<g>
		<g>
			<g>
				<path class="st3" d="M232.1,367.6c40,0,80,0,120,0c5.8,0,11.6,0,17.3,0c5.4,0,5.4-8.4,0-8.4c-40,0-80,0-120,0
					c-5.8,0-11.6,0-17.3,0C226.7,359.2,226.7,367.6,232.1,367.6L232.1,367.6z"/>
			</g>
		</g>
		<g>
			<line class="st4" x1="382" y1="363.4" x2="382" y2="528.4"/>
			<g>
				<path class="st5" d="M377.9,363.4c0,48.1,0,96.1,0,144.2c0,6.9,0,13.8,0,20.7c0,5.4,8.4,5.4,8.4,0c0-48.1,0-96.1,0-144.2
					c0-6.9,0-13.8,0-20.7C386.2,358,377.9,358,377.9,363.4L377.9,363.4z"/>
			</g>
		</g>
		<g>
			<line class="st4" x1="232.1" y1="363.4" x2="232.1" y2="528.4"/>
			<g>
				<path class="st5" d="M227.9,363.4c0,48.1,0,96.1,0,144.2c0,6.9,0,13.8,0,20.7c0,5.4,8.3,5.4,8.3,0c0-48.1,0-96.1,0-144.2
					c0-6.9,0-13.8,0-20.7C236.3,358,227.9,358,227.9,363.4L227.9,363.4z"/>
			</g>
		</g>
		<g>
			<line class="st4" x1="232.1" y1="528.4" x2="382" y2="528.4"/>
			<g>
				<path class="st5" d="M232.1,532.5c43.8,0,87.6,0,131.4,0c6.2,0,12.4,0,18.6,0c5.4,0,5.4-8.3,0-8.3c-43.8,0-87.6,0-131.4,0
					c-6.2,0-12.4,0-18.6,0C226.7,524.2,226.7,532.5,232.1,532.5L232.1,532.5z"/>
			</g>
		</g>
		<g>
			<line class="st4" x1="232.1" y1="363.4" x2="382" y2="363.4"/>
			<g>
				<path class="st5" d="M232.1,367.6c43.8,0,87.6,0,131.4,0c6.2,0,12.4,0,18.6,0c5.4,0,5.4-8.4,0-8.4c-43.8,0-87.6,0-131.4,0
					c-6.2,0-12.4,0-18.6,0C226.7,359.2,226.7,367.6,232.1,367.6L232.1,367.6z"/>
			</g>
		</g>
	</g>
	<text transform="matrix(1 0 0 1 162.0408 347.2263)" class="st6 st7">Be</text>
	<text transform="matrix(1 0 0 1 279.9431 347.2263)" class="st3 st6 st7">h</text>
	<text transform="matrix(1 0 0 1 334.0935 347.2263)" class="st8 st6 st7">o</text>
	<text transform="matrix(0.91 0 0 1 389.2039 347.2263)" class="st8 st6 st7">ld</text>
	<path class="st3" d="M318.9,342.9v18.4c0,1.4,0.7,2.2,2.2,2.2h4.1c1.4,0,2.2-0.7,2.2-2.2v-18C324.6,343.2,321.7,343,318.9,342.9z"
		/>
	<path class="st3" d="M292.4,342.9c-0.3,0.1-0.5,0.1-0.8,0.2c-1.6,0.4-3.2,0.3-4.8,0v18.2c0,1.4,0.7,2.2,2.2,2.2h4.1
		c1.4,0,2.2-0.7,2.2-2.2V343C294.2,343.1,293.3,343.1,292.4,342.9z"/>
	<g>
		<path class="st3" d="M295.2,296.4v-18.9c0-1.4-0.7-2.2-2.2-2.2h-4.1c-1.4,0-2.2,0.7-2.2,2.2v19.1
			C289.6,296.5,292.4,296.5,295.2,296.4z"/>
	</g>
	<text transform="matrix(-0.91 0 0 -1 409.291 275.522)" class="st8 st6 st7">l</text>
</g>
</svg>
