<?xml version="1.0" encoding="utf-8"?>
<!-- Generator: Adobe Illustrator 19.1.0, SVG Export Plug-In . SVG Version: 6.00 Build 0)  -->
<svg version="1.1" xmlns="http://www.w3.org/2000/svg" xmlns:xlink="http://www.w3.org/1999/xlink" x="0px" y="0px"
	 viewBox="0 0 1920 1080" style="enable-background:new 0 0 1920 1080;" xml:space="preserve">
<style type="text/css">
	.st0{display:none;}
	.st1{display:inline;}
	.st2{fill:none;stroke:#47B754;stroke-width:7.200000e-02;stroke-miterlimit:10;}
	.st3{fill:#48B753;}
	.st4{fill:#48B749;}
	.st5{fill:#47B754;}
	.st6{fill:#49B751;}
	.st7{font-family:'IstokWeb-Regular';}
	.st8{font-size:176.6652px;}
</style>
<g id="Layer_1" class="st0">
</g>
<g id="Layer_3" class="st0">
	<g class="st1">
		<line class="st2" x1="998.5" y1="-151.1" x2="951.1" y2="-151.1"/>
		<line class="st2" x1="951.1" y1="-151.1" x2="943" y2="-151.1"/>
	</g>
</g>
<g id="Layer_2">
</g>
<g id="Layer_4">
	<g>
		<g>
			<g>
				<path class="st3" d="M819.8,384.1c27.9,0,55.8,0,83.6,0c44.2,0,88.5,0,132.7,0c10.2,0,20.3,0,30.5,0c5.4,0,5.4-8.4,0-8.4
					c-27.9,0-55.8,0-83.6,0c-44.2,0-88.5,0-132.7,0c-10.2,0-20.3,0-30.5,0C814.4,375.7,814.4,384.1,819.8,384.1L819.8,384.1z"/>
			</g>
		</g>
		<g>
			<line class="st4" x1="1089.2" y1="379.9" x2="1089.2" y2="676.3"/>
			<g>
				<path class="st5" d="M1085.1,379.9c0,33.5,0,67,0,100.5c0,53,0,106.1,0,159.1c0,12.3,0,24.5,0,36.8c0,5.4,8.3,5.4,8.3,0
					c0-33.5,0-67,0-100.5c0-53,0-106.1,0-159.1c0-12.3,0-24.5,0-36.8C1093.4,374.5,1085.1,374.5,1085.1,379.9L1085.1,379.9z"/>
			</g>
		</g>
		<g>
			<line class="st4" x1="819.8" y1="379.9" x2="819.8" y2="676.3"/>
			<g>
				<path class="st5" d="M815.6,379.9c0,33.5,0,67,0,100.5c0,53,0,106.1,0,159.1c0,12.3,0,24.5,0,36.8c0,5.4,8.3,5.4,8.3,0
					c0-33.5,0-67,0-100.5c0-53,0-106.1,0-159.1c0-12.3,0-24.5,0-36.8C824,374.5,815.6,374.5,815.6,379.9L815.6,379.9z"/>
			</g>
		</g>
		<g>
			<line class="st4" x1="819.8" y1="676.3" x2="1089.2" y2="676.3"/>
			<g>
				<path class="st5" d="M819.8,680.5c30.3,0,60.7,0,91,0c48.4,0,96.7,0,145.1,0c11.1,0,22.2,0,33.3,0c5.4,0,5.4-8.3,0-8.3
					c-30.3,0-60.7,0-91,0c-48.4,0-96.7,0-145.1,0c-11.1,0-22.2,0-33.3,0C814.4,672.1,814.4,680.5,819.8,680.5L819.8,680.5z"/>
			</g>
		</g>
		<g>
			<line class="st4" x1="819.8" y1="379.9" x2="1089.2" y2="379.9"/>
			<g>
				<path class="st5" d="M819.8,384.1c30.3,0,60.7,0,91,0c48.4,0,96.7,0,145.1,0c11.1,0,22.2,0,33.3,0c5.4,0,5.4-8.4,0-8.4
					c-30.3,0-60.7,0-91,0c-48.4,0-96.7,0-145.1,0c-11.1,0-22.2,0-33.3,0C814.4,375.7,814.4,384.1,819.8,384.1L819.8,384.1z"/>
			</g>
		</g>
	</g>
	<g>
		<path d="M712.9,350.8c-2.9,0-4.3-1.6-4.3-4.7V231.9c0-3.2,1.4-4.7,4.3-4.7h33.6c19.6,0,32.7,3.2,39.5,9.5
			c6.8,6.3,10.2,13.9,10.2,22.9c0,7.1-2.8,13.1-8.5,18c-5.6,4.9-11.1,7.8-16.4,8.7v0.3c5.8,0.5,12.3,3.4,19.5,8.7
			c7.2,5.3,10.7,12.4,10.7,21.4c0,9.8-3.6,17.9-10.8,24.5c-7.2,6.6-20.5,9.8-39.9,9.8H712.9z M725.2,281.1h21.7
			c9.6,0,17.4-2.1,23.5-6.2c6.1-4.1,9.1-9.3,9.1-15.5c0-5.9-2.3-10.4-6.8-13.5c-4.5-3.1-13.1-4.7-25.8-4.7h-21.7V281.1z
			 M725.2,336.7h22.9c12.4,0,21.4-1.5,27.2-4.6c5.8-3,8.6-8.4,8.6-16.1c0-7.1-2.9-12.7-8.8-16.6c-5.8-3.9-14.9-5.9-27-5.9h-22.9
			V336.7z"/>
		<path d="M818.4,305.5c0-14.3,3.6-25.6,10.7-34.1c7.1-8.5,17.3-12.7,30.6-12.7c11,0,20.2,3.9,27.5,11.6c7.3,7.7,10.9,20.1,10.9,37
			c0,2.6-1.2,3.9-3.6,3.9h-60.5c1,11.1,4,18.9,9,23.2c5,4.4,10.7,6.5,17.1,6.5c6.7,0,11.9-1.1,15.5-3.4c3.6-2.2,6.2-4.5,7.9-6.7
			c1.8-2.4,3.6-2.9,5.3-1.4l5.1,4.4c1.3,1.2,1.3,2.7,0,4.8c-1.1,1.7-4.2,4.3-9.4,8c-5.1,3.7-13.2,5.5-24.3,5.5
			c-14.4,0-25-4.2-31.8-12.7C821.8,331.1,818.4,319.8,818.4,305.5z M834.1,300.1h48.7c-0.2-8-2.3-15.1-6.2-21.2
			c-3.9-6.1-9.7-9.1-17.3-9.1c-6.7,0-12.3,2.2-17,6.7C837.7,281,835,288.8,834.1,300.1z"/>
		<path class="st3" d="M921.9,350.8c-2.6,0-3.9-1.3-3.9-3.9V227.4c0-2.6,1.3-3.9,3.9-3.9h7.4c2.6,0,3.9,1.3,3.9,3.9v38.5
			c0,1.7-0.1,3.5-0.2,5.2h0.2c3.7-4.1,7.8-7.2,12.1-9.2c4.3-2,9.7-3,16.2-3c10.5,0,18,2.9,22.6,8.8c4.6,5.9,6.9,14,6.9,24.2v55.1
			c0,2.6-1.3,3.9-3.9,3.9h-7.4c-2.6,0-3.9-1.3-3.9-3.9v-51c0-11.3-1.9-18.4-5.6-21.4c-3.7-3-8.5-4.5-14.2-4.5
			c-7.5,0-13.1,2.2-17,6.7c-3.9,4.5-5.8,12.1-5.8,22.9v47.4c0,2.6-1.3,3.9-3.9,3.9H921.9z"/>
		<path class="st6" d="M1010.4,305.5c0-13.5,3.6-24.7,10.7-33.5c7.2-8.8,17.6-13.2,31.4-13.2s24.3,4.4,31.4,13.2
			c7.2,8.8,10.7,20,10.7,33.5c0,13.5-3.6,24.7-10.7,33.5c-7.2,8.8-17.6,13.2-31.4,13.2s-24.3-4.4-31.4-13.2
			C1014,330.2,1010.4,319,1010.4,305.5z M1026.5,305.5c0,12.1,2.4,21,7.2,26.8c4.8,5.8,11.1,8.7,19,8.7c7.9,0,14.2-2.9,19-8.7
			c4.8-5.8,7.2-14.8,7.2-26.8c0-12.1-2.4-21-7.2-26.8c-4.8-5.8-11.1-8.7-19-8.7c-7.9,0-14.2,2.9-19,8.7
			C1028.9,284.5,1026.5,293.5,1026.5,305.5z"/>
		<path class="st6" d="M1116.8,350.8c-2.4,0-3.5-1.3-3.5-3.9V239.3c0-1.1,0.3-2.2,0.8-3.3l5.5-11c1-2,1.8-3,2.4-3h2.7
			c1.6,0,2.4,1,2.4,3v121.9c0,2.6-1.2,3.9-3.5,3.9H1116.8z"/>
		<path class="st6" d="M1144.9,305.5c0-12.4,2.8-23.2,8.3-32.7c5.5-9.4,13.6-14.1,24.2-14.1c6.1,0,11,1.1,14.7,3.3
			c3.7,2.2,7,5.2,9.9,9h0.2c-0.1-1.7-0.2-3.5-0.2-5.3v-38.4c0-2.6,1.1-3.9,3.3-3.9h6.3c2.2,0,3.3,1.3,3.3,3.9v119.6
			c0,2.6-1.2,3.9-3.5,3.9h-6.6c-1.9,0-2.8-1.3-2.8-3.9V340c-2.9,3.8-6.2,6.8-9.9,9c-3.7,2.2-8.6,3.3-14.7,3.3
			c-10.6,0-18.7-4.7-24.2-14.1C1147.7,328.8,1144.9,317.9,1144.9,305.5z M1159.5,305.5c0,10.6,1.7,19.2,5.1,25.7
			c3.4,6.6,9.1,9.8,17.3,9.8c5.8,0,10.6-2.1,14.4-6.3s5.7-10.7,5.7-19.3v-19.8c0-8.6-1.9-15.1-5.7-19.3c-3.8-4.2-8.6-6.3-14.4-6.3
			c-8.1,0-13.9,3.3-17.3,9.8C1161.2,286.4,1159.5,294.9,1159.5,305.5z"/>
	</g>
	<path class="st3" d="M975.8,343v33.1c0,2.6,1.3,3.9,3.9,3.9h7.4c2.6,0,3.9-1.3,3.9-3.9v-32.4C986,343.5,980.9,343.3,975.8,343z"/>
	<path class="st3" d="M928.1,343.1c-0.5,0.1-1,0.2-1.4,0.4c-2.8,0.7-5.8,0.6-8.7,0v32.7c0,2.6,1.3,3.9,3.9,3.9h7.4
		c2.6,0,3.9-1.3,3.9-3.9v-32.9C931.5,343.3,929.8,343.3,928.1,343.1z"/>
	<g>
		<path class="st3" d="M933.2,259.5v-33.9c0-2.6-1.3-3.9-3.9-3.9h-7.4c-2.6,0-3.9,1.3-3.9,3.9v34.2
			C923.1,259.8,928.2,259.6,933.2,259.5z"/>
	</g>
	<text transform="matrix(-0.91 0 0 -1 1138.2152 221.9713)" class="st6 st7 st8">l</text>
</g>
</svg>
